<svg width="679" height="261" viewBox="0 0 679 261" fill="none" xmlns="http://www.w3.org/2000/svg">
<path d="M72.6276 219.741C33.1061 219.741 0.974609 187.607 0.974609 148.082V93.6412C0.974609 54.1165 33.1061 21.9824 72.6276 21.9824H437.93C492.448 21.9824 536.815 66.3529 536.815 120.875C536.815 175.398 492.448 219.768 437.93 219.768H72.6276V219.741Z" fill="url(#paint0_linear_181_141)"/>
<path style="mix-blend-mode:multiply" d="M518.651 63.8623C500.731 38.5503 471.253 21.9824 437.93 21.9824H72.6275C43.7443 21.9824 18.8133 39.1729 7.47119 63.8623H518.624H518.651Z" fill="url(#paint1_linear_181_141)"/>
<path d="M673.218 104.172L642.305 61.4798C636.972 54.1163 628.337 49.7036 619.242 49.7036H534V192.019H619.269C628.364 192.019 636.999 187.634 642.332 180.243L673.245 137.605C680.5 127.616 680.5 114.161 673.245 104.172H673.218Z" fill="url(#paint2_linear_181_141)"/>
<path d="M619.513 63.5371H533.188V178.186H619.54C624.304 178.186 628.77 175.912 631.586 172.04L662.336 129.619C666.099 124.421 666.126 117.356 662.336 112.158L631.558 69.6824C628.77 65.8111 624.277 63.5371 619.513 63.5371Z" fill="url(#paint3_linear_181_141)"/>
<path style="mix-blend-mode:multiply" d="M458.855 260.538C524.71 260.538 578.096 207.147 578.096 141.287C578.096 75.4265 524.71 22.0361 458.855 22.0361C393 22.0361 339.614 75.4265 339.614 141.287C339.614 207.147 393 260.538 458.855 260.538Z" fill="url(#paint4_radial_181_141)"/>
<path d="M439.663 241.75C506.415 241.75 560.528 187.633 560.528 120.875C560.528 54.1176 506.415 0 439.663 0C372.911 0 318.797 54.1176 318.797 120.875C318.797 187.633 372.911 241.75 439.663 241.75Z" fill="url(#paint5_linear_181_141)"/>
<path d="M439.663 218.252C493.438 218.252 537.032 174.655 537.032 120.875C537.032 67.0952 493.438 23.498 439.663 23.498C385.887 23.498 342.294 67.0952 342.294 120.875C342.294 174.655 385.887 218.252 439.663 218.252Z" fill="url(#paint6_linear_181_141)"/>
<path style="mix-blend-mode:multiply" d="M439.663 218.252C493.438 218.252 537.032 174.655 537.032 120.875C537.032 67.0952 493.438 23.498 439.663 23.498C385.887 23.498 342.294 67.0952 342.294 120.875C342.294 174.655 385.887 218.252 439.663 218.252Z" fill="url(#paint7_radial_181_141)"/>
<path style="mix-blend-mode:multiply" d="M501.275 184.977C529.828 156.422 529.828 110.125 501.275 81.5693C472.722 53.014 426.428 53.014 397.875 81.5693C369.322 110.125 369.322 156.422 397.875 184.978C426.428 213.533 472.722 213.533 501.275 184.977Z" fill="url(#paint8_radial_181_141)"/>
<g filter="url(#filter0_d_181_141)">
<path d="M439.663 45.1828H74.9556C48.6711 45.1828 27.3674 66.4883 27.3674 92.7749V148.949C27.3674 175.235 48.6711 196.541 74.9556 196.541H439.663C481.458 196.541 515.349 162.647 515.349 120.848C515.349 79.0495 481.458 45.1558 439.663 45.1558V45.1828Z" fill="url(#paint9_linear_181_141)"/>
</g>
<path d="M439.663 179.783C472.194 179.783 498.566 153.409 498.566 120.875C498.566 88.3413 472.194 61.9673 439.663 61.9673C407.131 61.9673 380.76 88.3413 380.76 120.875C380.76 153.409 407.131 179.783 439.663 179.783Z" fill="url(#paint10_linear_181_141)"/>
<g clip-path="url(#clip0_181_141)">
<path d="M423.721 128.378C423.095 128.378 422.243 129.145 421.579 130.43H425.861C425.2 129.145 424.345 128.378 423.718 128.378H423.721Z" fill="#A7A9AC"/>
<path d="M423.148 114.608C423.148 114.93 423.406 115.192 423.725 115.192C424.043 115.192 424.199 115.117 424.236 115.091C424.233 115.091 424.298 114.952 424.298 114.611C424.298 114.289 424.04 114.027 423.725 114.027C423.41 114.027 423.148 114.289 423.148 114.611V114.608Z" fill="#A7A9AC"/>
<path d="M420.924 123.07C420.297 123.07 419.445 123.838 418.781 125.123H423.063C422.402 123.838 421.548 123.07 420.921 123.07H420.924Z" fill="white"/>
<path d="M420.35 109.301C420.35 109.623 420.609 109.885 420.927 109.885C421.245 109.885 421.401 109.809 421.438 109.784C421.435 109.784 421.501 109.645 421.501 109.304C421.501 108.982 421.242 108.72 420.927 108.72C420.612 108.72 420.35 108.982 420.35 109.304V109.301Z" fill="white"/>
<path d="M478.297 92.3076H405.501C401.805 92.3076 398.798 95.3513 398.798 99.0929V147.215C398.798 150.956 401.805 154 405.501 154H478.297C481.993 154 485 150.956 485 147.215V99.0929C485 95.3513 481.993 92.3076 478.297 92.3076ZM424.295 114.608C424.295 114.952 424.23 115.088 424.233 115.088C424.196 115.117 424.03 115.189 423.722 115.189C423.413 115.189 423.145 114.927 423.145 114.605C423.145 114.283 423.403 114.021 423.722 114.021C424.04 114.021 424.295 114.283 424.295 114.605V114.608ZM423.722 128.378C424.349 128.378 425.2 129.145 425.864 130.43H421.582C422.243 129.145 423.098 128.378 423.725 128.378H423.722Z" fill="#A7A9AC"/>
<path d="M475.5 87H402.703C399.007 87 396 90.0437 396 93.7852V141.907C396 145.649 399.007 148.692 402.703 148.692H475.5C479.196 148.692 482.202 145.649 482.202 141.907V93.7852C482.202 90.0437 479.196 87 475.5 87ZM421.498 109.301C421.498 109.645 421.432 109.781 421.435 109.781C421.398 109.809 421.233 109.882 420.924 109.882C420.615 109.882 420.347 109.62 420.347 109.298C420.347 108.975 420.606 108.713 420.924 108.713C421.242 108.713 421.498 108.975 421.498 109.298V109.301ZM420.924 123.07C421.551 123.07 422.402 123.837 423.066 125.122H418.784C419.445 123.837 420.3 123.07 420.927 123.07H420.924Z" fill="white"/>
<path d="M457.147 131.92C457.649 131.712 458.233 131.238 458.233 130.6V130.455C456.751 130.941 455.722 131.412 455.22 131.797C455.859 132.214 456.608 132.147 457.15 131.92H457.147Z" fill="black"/>
<path d="M410.884 128.381H411.875C412.293 122.031 416.183 117.055 420.924 117.055C425.664 117.055 429.557 122.031 429.972 128.381H430.963V101.518H410.884V128.384V128.381ZM420.927 102.702C424.526 102.702 427.442 105.657 427.442 109.297C427.442 113.405 424.526 115.893 420.927 115.893C417.327 115.893 414.411 112.938 414.411 109.297C414.411 105.657 417.33 102.702 420.927 102.702Z" fill="black"/>
<path d="M475.499 93.0146H402.702C402.281 93.0146 401.941 93.362 401.941 93.7851V141.907C401.941 142.333 402.281 142.677 402.702 142.677H475.499C475.92 142.677 476.26 142.333 476.26 141.907V93.7851C476.26 93.3588 475.92 93.0146 475.499 93.0146ZM438.331 98.7611H467.995C468.747 98.7611 469.355 99.3768 469.355 100.138C469.355 100.899 468.744 101.514 467.995 101.514H438.331C437.579 101.514 436.971 100.896 436.971 100.138C436.971 99.38 437.579 98.7611 438.331 98.7611ZM433.689 129.757C433.689 130.518 433.078 131.134 432.33 131.134H409.524C408.772 131.134 408.164 130.518 408.164 129.757V100.138C408.164 99.3768 408.772 98.7611 409.524 98.7611H432.33C433.081 98.7611 433.689 99.3768 433.689 100.138V129.757ZM436.971 106.563C436.971 105.802 437.579 105.186 438.331 105.186H467.995C468.747 105.186 469.355 105.802 469.355 106.563C469.355 107.324 468.744 107.94 467.995 107.94H438.331C437.579 107.94 436.971 107.321 436.971 106.563ZM467.995 139.359H448.96C448.208 139.359 447.6 138.74 447.6 137.982C447.6 137.225 448.211 136.606 448.96 136.606H467.995C468.747 136.606 469.355 137.225 469.355 137.982C469.355 138.74 468.744 139.359 467.995 139.359ZM469.857 128.15C466.355 128.535 463.338 129.094 460.946 129.685C460.952 130.013 460.952 130.319 460.952 130.6C460.952 132.245 459.87 133.761 458.189 134.465C457.553 134.73 456.898 134.863 456.258 134.863C455.039 134.863 453.872 134.389 452.974 133.48C452.313 132.811 452.098 131.952 452.388 131.121C452.684 130.275 453.595 129.006 458.021 127.639C457.89 127.036 457.678 126.527 457.341 126.303C456.948 126.041 456.174 126.139 455.17 126.584C450.619 128.589 447.56 133.218 447.531 133.265C447.117 133.9 446.275 134.073 445.645 133.657C445.018 133.237 444.846 132.384 445.258 131.746C445.401 131.529 448.801 126.385 454.081 124.058C456.012 123.209 457.609 123.187 458.832 123.998C459.842 124.671 460.372 125.76 460.65 126.922C463.298 126.284 466.386 125.757 469.567 125.406C470.312 125.324 470.986 125.871 471.067 126.625C471.148 127.383 470.609 128.062 469.86 128.144L469.857 128.15Z" fill="black"/>
</g>
<defs>
<filter id="filter0_d_181_141" x="21.3674" y="39.1558" width="507.982" height="171.385" filterUnits="userSpaceOnUse" color-interpolation-filters="sRGB">
<feFlood flood-opacity="0" result="BackgroundImageFix"/>
<feColorMatrix in="SourceAlpha" type="matrix" values="0 0 0 0 0 0 0 0 0 0 0 0 0 0 0 0 0 0 127 0" result="hardAlpha"/>
<feOffset dx="4" dy="4"/>
<feGaussianBlur stdDeviation="5"/>
<feColorMatrix type="matrix" values="0 0 0 0 0 0 0 0 0 0 0 0 0 0 0 0 0 0 0.15 0"/>
<feBlend mode="normal" in2="BackgroundImageFix" result="effect1_dropShadow_181_141"/>
<feBlend mode="normal" in="SourceGraphic" in2="effect1_dropShadow_181_141" result="shape"/>
</filter>
<linearGradient id="paint0_linear_181_141" x1="420.714" y1="280.679" x2="23.5185" y2="-116.484" gradientUnits="userSpaceOnUse">
<stop stop-color="#C9C0C0"/>
<stop offset="1" stop-color="#E5DFDF"/>
</linearGradient>
<linearGradient id="paint1_linear_181_141" x1="263.088" y1="35.1122" x2="263.088" y2="-100.598" gradientUnits="userSpaceOnUse">
<stop stop-color="white"/>
<stop offset="1"/>
</linearGradient>
<linearGradient id="paint2_linear_181_141" x1="-2.54428" y1="195.999" x2="0.163106" y2="88.7681" gradientUnits="userSpaceOnUse">
<stop stop-color="#C9C0C0"/>
<stop offset="1" stop-color="#E5DFDF"/>
</linearGradient>
<linearGradient id="paint3_linear_181_141" x1="638.867" y1="180.324" x2="512.334" y2="53.8016" gradientUnits="userSpaceOnUse">
<stop stop-color="#33C9F2"/>
<stop offset="1" stop-color="#006794"/>
</linearGradient>
<radialGradient id="paint4_radial_181_141" cx="0" cy="0" r="1" gradientUnits="userSpaceOnUse" gradientTransform="translate(458.855 141.287) scale(119.241 119.251)">
<stop/>
<stop offset="1" stop-color="white"/>
</radialGradient>
<linearGradient id="paint5_linear_181_141" x1="605.22" y1="286.445" x2="376.897" y2="58.1414" gradientUnits="userSpaceOnUse">
<stop stop-color="#006794"/>
<stop offset="1" stop-color="#33C9F2"/>
</linearGradient>
<linearGradient id="paint6_linear_181_141" x1="342.294" y1="120.875" x2="537.032" y2="120.875" gradientUnits="userSpaceOnUse">
<stop stop-color="#E5DFDF"/>
<stop offset="1" stop-color="#C9C0C0"/>
</linearGradient>
<radialGradient id="paint7_radial_181_141" cx="0" cy="0" r="1" gradientUnits="userSpaceOnUse" gradientTransform="translate(442.045 124.367) scale(105.246 105.255)">
<stop offset="0.8" stop-color="white"/>
<stop offset="0.87" stop-color="#FDFDFD"/>
<stop offset="0.9" stop-color="#F6F6F6"/>
<stop offset="0.92" stop-color="#EAE9EA"/>
<stop offset="0.93" stop-color="#D9D8D8"/>
<stop offset="0.95" stop-color="#C3C2C2"/>
<stop offset="0.96" stop-color="#A7A6A6"/>
<stop offset="0.97" stop-color="#878585"/>
<stop offset="0.99" stop-color="#615E5F"/>
<stop offset="1" stop-color="#231F20"/>
</radialGradient>
<radialGradient id="paint8_radial_181_141" cx="0" cy="0" r="1" gradientUnits="userSpaceOnUse" gradientTransform="translate(449.579 133.277) scale(73.1147 73.1206)">
<stop/>
<stop offset="1" stop-color="white"/>
</radialGradient>
<linearGradient id="paint9_linear_181_141" x1="406.151" y1="263.922" x2="50.6184" y2="-91.6087" gradientUnits="userSpaceOnUse">
<stop stop-color="#EDEBEB"/>
<stop offset="1" stop-color="white"/>
</linearGradient>
<linearGradient id="paint10_linear_181_141" x1="543.934" y1="225.155" x2="420.054" y2="101.312" gradientUnits="userSpaceOnUse">
<stop stop-color="#006794"/>
<stop offset="1" stop-color="#33C9F2"/>
</linearGradient>
<clipPath id="clip0_181_141">
<rect width="89" height="67" fill="white" transform="translate(396 87)"/>
</clipPath>
</defs>
</svg>
