<svg width="676" height="318" viewBox="0 0 676 318" fill="none" xmlns="http://www.w3.org/2000/svg">
<path d="M5.46799 175.352L36.3813 218.044C41.714 225.407 50.3492 229.82 59.4446 229.82H144.686V87.5044H59.4175C50.3222 87.5044 41.687 91.89 36.3543 99.2805L5.44094 141.918C-1.81369 151.908 -1.81369 165.363 5.44094 175.352H5.46799Z" fill="url(#paint0_linear_181_155)"/>
<path style="mix-blend-mode:multiply" d="M37.383 97.927C42.7698 91.4027 50.8365 87.5044 59.3363 87.5044H144.578V97.927H37.3559H37.383Z" fill="url(#paint1_linear_181_155)"/>
<path d="M604.11 258.381C643.631 258.381 675.763 226.247 675.763 186.722V132.281C675.763 92.7562 643.631 60.6221 604.11 60.6221H238.807C184.289 60.6221 139.922 104.993 139.922 159.515C139.922 214.037 184.289 258.408 238.807 258.408H604.11V258.381Z" fill="url(#paint2_linear_181_155)"/>
<path style="mix-blend-mode:multiply" d="M158.086 102.502C176.006 77.1899 205.485 60.6221 238.807 60.6221H604.11C632.993 60.6221 657.924 77.8126 669.266 102.502H158.113H158.086Z" fill="url(#paint3_linear_181_155)"/>
<path d="M59.1736 215.987H145.498V101.338H59.1466C54.3823 101.338 49.9159 103.612 47.1006 107.484L16.3497 149.905C12.587 155.103 12.56 162.141 16.3497 167.366L47.1277 209.842C49.9159 213.713 54.4094 215.987 59.1736 215.987Z" fill="url(#paint4_linear_181_155)"/>
<path style="mix-blend-mode:multiply" d="M250.284 292.952C316.139 292.952 369.525 239.561 369.525 173.701C369.525 107.841 316.139 54.4502 250.284 54.4502C184.429 54.4502 131.043 107.841 131.043 173.701C131.043 239.561 184.429 292.952 250.284 292.952Z" fill="url(#paint5_radial_181_155)"/>
<path d="M280.532 269.808C341.905 243.552 370.374 172.511 344.121 111.134C317.867 49.7565 246.832 21.2847 185.46 47.5404C124.087 73.7961 95.6176 144.837 121.871 206.214C148.125 267.592 219.16 296.064 280.532 269.808Z" fill="url(#paint6_linear_181_155)"/>
<path d="M233.014 256.026C286.789 256.026 330.383 212.429 330.383 158.649C330.383 104.869 286.789 61.272 233.014 61.272C179.239 61.272 135.645 104.869 135.645 158.649C135.645 212.429 179.239 256.026 233.014 256.026Z" fill="url(#paint7_linear_181_155)"/>
<path style="mix-blend-mode:multiply" d="M233.014 256.026C286.789 256.026 330.383 212.429 330.383 158.649C330.383 104.869 286.789 61.272 233.014 61.272C179.239 61.272 135.645 104.869 135.645 158.649C135.645 212.429 179.239 256.026 233.014 256.026Z" fill="url(#paint8_radial_181_155)"/>
<path style="mix-blend-mode:multiply" d="M264.781 246.906C303.823 236.597 327.117 196.587 316.808 157.542C306.5 118.496 266.494 95.2008 227.452 105.51C188.409 115.819 165.116 155.828 175.424 194.874C185.732 233.919 225.738 257.215 264.781 246.906Z" fill="url(#paint9_radial_181_155)"/>
<g filter="url(#filter0_d_181_155)">
<path d="M233.014 234.341H597.721C624.006 234.341 645.309 213.036 645.309 186.749V130.575C645.309 104.289 624.006 82.9834 597.721 82.9834H233.014C191.219 82.9834 157.328 116.877 157.328 158.676C157.328 200.474 191.219 234.368 233.014 234.368V234.341Z" fill="url(#paint10_linear_181_155)"/>
</g>
<path d="M236.371 217.421C268.902 217.421 295.274 191.047 295.274 158.513C295.274 125.979 268.902 99.6055 236.371 99.6055C203.839 99.6055 177.467 125.979 177.467 158.513C177.467 191.047 203.839 217.421 236.371 217.421Z" fill="url(#paint11_linear_181_155)"/>
<g clip-path="url(#clip0_181_155)">
<path d="M232.151 208.113L247.881 192.571L243.634 150.71L247.384 154.519L260.507 156.72L258.353 143.382L241.928 128.457L246.172 121.457L240.482 115.678H232.164L224.005 115.661L218.313 121.444L222.871 128.959L216.422 192.574L232.151 208.113Z" fill="#A7A9AC"/>
<path d="M229.236 202.565L244.966 187.026L240.719 145.165L244.469 148.973L257.592 151.172L255.438 137.834L239.013 122.909L243.26 115.909L237.567 110.129H229.249L221.09 110.113L215.398 115.895L219.956 123.414L213.507 187.026L229.236 202.565Z" fill="white"/>
<path d="M232.84 121.1L235.423 116.843L235.004 116.417H229.237L223.648 116.404L223.232 116.826L225.818 121.087L232.84 121.1Z" fill="black"/>
<path d="M235.449 126.421L235.956 131.434L247.439 143.099L250.087 143.541L249.655 140.851L235.449 126.421Z" fill="black"/>
<path d="M232.349 123.979H229.237H226.121L219.97 184.639L229.237 193.795L238.5 184.639L233.188 132.24L232.349 123.979Z" fill="black"/>
</g>
<defs>
<filter id="filter0_d_181_155" x="151.328" y="76.9834" width="507.982" height="171.385" filterUnits="userSpaceOnUse" color-interpolation-filters="sRGB">
<feFlood flood-opacity="0" result="BackgroundImageFix"/>
<feColorMatrix in="SourceAlpha" type="matrix" values="0 0 0 0 0 0 0 0 0 0 0 0 0 0 0 0 0 0 127 0" result="hardAlpha"/>
<feOffset dx="4" dy="4"/>
<feGaussianBlur stdDeviation="5"/>
<feColorMatrix type="matrix" values="0 0 0 0 0 0 0 0 0 0 0 0 0 0 0 0 0 0 0.15 0"/>
<feBlend mode="normal" in2="BackgroundImageFix" result="effect1_dropShadow_181_155"/>
<feBlend mode="normal" in="SourceGraphic" in2="effect1_dropShadow_181_155" result="shape"/>
</filter>
<linearGradient id="paint0_linear_181_155" x1="21.7368" y1="84.2016" x2="128.941" y2="191.424" gradientUnits="userSpaceOnUse">
<stop stop-color="#E5DFDF"/>
<stop offset="1" stop-color="#C9C0C0"/>
</linearGradient>
<linearGradient id="paint1_linear_181_155" x1="90.9805" y1="96.6275" x2="90.9805" y2="43.9191" gradientUnits="userSpaceOnUse">
<stop stop-color="white"/>
<stop offset="1"/>
</linearGradient>
<linearGradient id="paint2_linear_181_155" x1="256.05" y1="319.292" x2="653.246" y2="-77.8716" gradientUnits="userSpaceOnUse">
<stop stop-color="#C9C0C0"/>
<stop offset="1" stop-color="#E5DFDF"/>
</linearGradient>
<linearGradient id="paint3_linear_181_155" x1="413.676" y1="73.7248" x2="413.676" y2="-61.9856" gradientUnits="userSpaceOnUse">
<stop stop-color="white"/>
<stop offset="1"/>
</linearGradient>
<linearGradient id="paint4_linear_181_155" x1="114.26" y1="173.674" x2="25.519" y2="84.9131" gradientUnits="userSpaceOnUse">
<stop stop-color="#7BA516"/>
<stop offset="1" stop-color="#9EC426"/>
</linearGradient>
<radialGradient id="paint5_radial_181_155" cx="0" cy="0" r="1" gradientUnits="userSpaceOnUse" gradientTransform="translate(-695.226 173.701) rotate(-180) scale(119.241 119.251)">
<stop/>
<stop offset="1" stop-color="white"/>
</radialGradient>
<linearGradient id="paint6_linear_181_155" x1="322.336" y1="247.999" x2="132.752" y2="58.4318" gradientUnits="userSpaceOnUse">
<stop stop-color="#7BA516"/>
<stop offset="1" stop-color="#9EC426"/>
</linearGradient>
<linearGradient id="paint7_linear_181_155" x1="330.383" y1="158.649" x2="135.618" y2="158.649" gradientUnits="userSpaceOnUse">
<stop stop-color="#E5DFDF"/>
<stop offset="1" stop-color="#C9C0C0"/>
</linearGradient>
<radialGradient id="paint8_radial_181_155" cx="0" cy="0" r="1" gradientUnits="userSpaceOnUse" gradientTransform="translate(-651.076 162.141) scale(1.35347 1.35358)">
<stop offset="0.8" stop-color="white"/>
<stop offset="0.87" stop-color="#FDFDFD"/>
<stop offset="0.9" stop-color="#F6F6F6"/>
<stop offset="0.92" stop-color="#EAE9EA"/>
<stop offset="0.93" stop-color="#D9D8D8"/>
<stop offset="0.95" stop-color="#C3C2C2"/>
<stop offset="0.96" stop-color="#A7A6A6"/>
<stop offset="0.97" stop-color="#878585"/>
<stop offset="0.99" stop-color="#615E5F"/>
<stop offset="1" stop-color="#231F20"/>
</radialGradient>
<radialGradient id="paint9_radial_181_155" cx="0" cy="0" r="1" gradientUnits="userSpaceOnUse" gradientTransform="translate(246.172 176.128) rotate(180) scale(73.1147 73.1206)">
<stop/>
<stop offset="1" stop-color="white"/>
</radialGradient>
<linearGradient id="paint10_linear_181_155" x1="266.526" y1="15.602" x2="622.085" y2="371.133" gradientUnits="userSpaceOnUse">
<stop stop-color="#EDEBEB"/>
<stop offset="1" stop-color="white"/>
</linearGradient>
<linearGradient id="paint11_linear_181_155" x1="270.722" y1="192.867" x2="184.282" y2="106.462" gradientUnits="userSpaceOnUse">
<stop stop-color="#7BA516"/>
<stop offset="1" stop-color="#9EC426"/>
</linearGradient>
<clipPath id="clip0_181_155">
<rect width="47" height="98" fill="white" transform="translate(213.507 110.113)"/>
</clipPath>
</defs>
</svg>
