<svg width="676" height="256" viewBox="0 0 676 256" fill="none" xmlns="http://www.w3.org/2000/svg">
<path d="M5.46799 137.551L36.3813 180.243C41.714 187.607 50.3492 192.019 59.4446 192.019H144.686V49.7036H59.4175C50.3222 49.7036 41.687 54.0892 36.3543 61.4798L5.44094 104.118C-1.81369 114.107 -1.81369 127.562 5.44094 137.551H5.46799Z" fill="url(#paint0_linear_182_182)"/>
<path style="mix-blend-mode:multiply" d="M37.383 60.2078C42.7698 53.6835 50.8365 49.7852 59.3364 49.7852H144.578V60.2078H37.3559H37.383Z" fill="url(#paint1_linear_182_182)"/>
<path d="M604.11 219.578C643.631 219.578 675.763 187.444 675.763 147.92V93.4786C675.763 53.9539 643.631 21.8198 604.11 21.8198H238.807C184.289 21.8198 139.922 66.1903 139.922 120.713C139.922 175.235 184.289 219.606 238.807 219.606H604.11V219.578Z" fill="url(#paint2_linear_182_182)"/>
<path style="mix-blend-mode:multiply" d="M158.086 63.6997C176.006 38.3877 205.485 21.8198 238.807 21.8198H604.11C632.993 21.8198 657.924 39.0103 669.266 63.6997H158.113H158.086Z" fill="url(#paint3_linear_182_182)"/>
<path d="M59.1736 178.213H145.498V63.5645H59.1466C54.3823 63.5645 49.9159 65.8385 47.1006 69.7097L16.3497 112.131C12.587 117.329 12.56 124.367 16.3497 129.592L47.1277 172.068C49.9159 175.939 54.4094 178.213 59.1736 178.213Z" fill="url(#paint4_linear_182_182)"/>
<path style="mix-blend-mode:multiply" d="M250.284 255.15C316.139 255.15 369.525 201.76 369.525 135.9C369.525 70.0393 316.139 16.6489 250.284 16.6489C184.429 16.6489 131.043 70.0393 131.043 135.9C131.043 201.76 184.429 255.15 250.284 255.15Z" fill="url(#paint5_radial_182_182)"/>
<path d="M233.014 241.75C299.766 241.75 353.879 187.633 353.879 120.875C353.879 54.1176 299.766 0 233.014 0C166.262 0 112.149 54.1176 112.149 120.875C112.149 187.633 166.262 241.75 233.014 241.75Z" fill="url(#paint6_linear_182_182)"/>
<path d="M233.014 218.252C286.789 218.252 330.383 174.655 330.383 120.875C330.383 67.0956 286.789 23.4985 233.014 23.4985C179.239 23.4985 135.645 67.0956 135.645 120.875C135.645 174.655 179.239 218.252 233.014 218.252Z" fill="url(#paint7_linear_182_182)"/>
<path style="mix-blend-mode:multiply" d="M233.014 218.252C286.789 218.252 330.383 174.655 330.383 120.875C330.383 67.0956 286.789 23.4985 233.014 23.4985C179.239 23.4985 135.645 67.0956 135.645 120.875C135.645 174.655 179.239 218.252 233.014 218.252Z" fill="url(#paint8_radial_182_182)"/>
<path style="mix-blend-mode:multiply" d="M291.47 195.767C323.168 170.75 328.585 124.77 303.57 93.0695C278.554 61.3688 232.578 55.9512 200.88 80.969C169.182 105.987 163.765 151.966 188.781 183.667C213.796 215.367 259.772 220.785 291.47 195.767Z" fill="url(#paint9_radial_182_182)"/>
<g filter="url(#filter0_d_182_182)">
<path d="M233.014 196.567H597.721C624.006 196.567 645.309 175.262 645.309 148.975V92.8015C645.309 66.5149 624.006 45.2095 597.721 45.2095H233.014C191.219 45.2095 157.328 79.1032 157.328 120.902C157.328 162.701 191.219 196.594 233.014 196.594V196.567Z" fill="url(#paint10_linear_182_182)"/>
</g>
<path d="M236.371 178.646C268.902 178.646 295.274 152.272 295.274 119.738C295.274 87.2041 268.902 60.8301 236.371 60.8301C203.839 60.8301 177.467 87.2041 177.467 119.738C177.467 152.272 203.839 178.646 236.371 178.646Z" fill="url(#paint11_linear_182_182)"/>
<g clip-path="url(#clip0_182_182)">
<path d="M235.644 177L251.374 161.458L247.127 119.597L250.877 123.406L264 125.607L261.846 112.27L245.421 97.3446L249.665 90.3441L243.975 84.5648H235.657L227.499 84.5483L221.806 90.3309L226.365 97.8463L219.915 161.461L235.644 177Z" fill="#A7A9AC"/>
<path d="M232.729 171.452L248.459 155.913L244.212 114.052L247.962 117.861L261.085 120.059L258.931 106.721L242.506 91.7962L246.753 84.7958L241.06 79.0165H232.742L224.584 79L218.891 84.7826L223.45 92.3012L217 155.913L232.729 171.452Z" fill="white"/>
<path d="M236.333 89.9877L238.916 85.73L238.497 85.3042H232.73L227.141 85.291L226.725 85.7135L229.312 89.9745L236.333 89.9877Z" fill="black"/>
<path d="M238.942 95.3081L239.449 100.322L250.932 111.986L253.58 112.428L253.148 109.738L238.942 95.3081Z" fill="black"/>
<path d="M235.843 92.8657H232.73H229.614L223.463 153.527L232.73 162.682L241.993 153.527L236.681 101.127L235.843 92.8657Z" fill="black"/>
</g>
<defs>
<filter id="filter0_d_182_182" x="151.328" y="39.2095" width="507.982" height="171.385" filterUnits="userSpaceOnUse" color-interpolation-filters="sRGB">
<feFlood flood-opacity="0" result="BackgroundImageFix"/>
<feColorMatrix in="SourceAlpha" type="matrix" values="0 0 0 0 0 0 0 0 0 0 0 0 0 0 0 0 0 0 127 0" result="hardAlpha"/>
<feOffset dx="4" dy="4"/>
<feGaussianBlur stdDeviation="5"/>
<feColorMatrix type="matrix" values="0 0 0 0 0 0 0 0 0 0 0 0 0 0 0 0 0 0 0.15 0"/>
<feBlend mode="normal" in2="BackgroundImageFix" result="effect1_dropShadow_182_182"/>
<feBlend mode="normal" in="SourceGraphic" in2="effect1_dropShadow_182_182" result="shape"/>
</filter>
<linearGradient id="paint0_linear_182_182" x1="21.7368" y1="46.4279" x2="128.941" y2="153.623" gradientUnits="userSpaceOnUse">
<stop stop-color="#E5DFDF"/>
<stop offset="1" stop-color="#C9C0C0"/>
</linearGradient>
<linearGradient id="paint1_linear_182_182" x1="90.9806" y1="58.8812" x2="90.9806" y2="6.17269" gradientUnits="userSpaceOnUse">
<stop stop-color="white"/>
<stop offset="1"/>
</linearGradient>
<linearGradient id="paint2_linear_182_182" x1="256.05" y1="280.49" x2="653.246" y2="-116.674" gradientUnits="userSpaceOnUse">
<stop stop-color="#C9C0C0"/>
<stop offset="1" stop-color="#E5DFDF"/>
</linearGradient>
<linearGradient id="paint3_linear_182_182" x1="413.676" y1="34.9225" x2="413.676" y2="-100.788" gradientUnits="userSpaceOnUse">
<stop stop-color="white"/>
<stop offset="1"/>
</linearGradient>
<linearGradient id="paint4_linear_182_182" x1="13.5345" y1="120.875" x2="145.498" y2="120.875" gradientUnits="userSpaceOnUse">
<stop stop-color="#9EC426"/>
<stop offset="1" stop-color="#7BA516"/>
</linearGradient>
<radialGradient id="paint5_radial_182_182" cx="0" cy="0" r="1" gradientUnits="userSpaceOnUse" gradientTransform="translate(250.284 135.9) rotate(-180) scale(119.241 119.251)">
<stop/>
<stop offset="1" stop-color="white"/>
</radialGradient>
<linearGradient id="paint6_linear_182_182" x1="318.987" y1="206.828" x2="142.994" y2="30.876" gradientUnits="userSpaceOnUse">
<stop stop-color="#7BA516"/>
<stop offset="1" stop-color="#9EC426"/>
</linearGradient>
<linearGradient id="paint7_linear_182_182" x1="330.383" y1="120.875" x2="135.618" y2="120.875" gradientUnits="userSpaceOnUse">
<stop stop-color="#E5DFDF"/>
<stop offset="1" stop-color="#C9C0C0"/>
</linearGradient>
<radialGradient id="paint8_radial_182_182" cx="0" cy="0" r="1" gradientUnits="userSpaceOnUse" gradientTransform="translate(235.396 124.368) scale(105.246 105.255)">
<stop offset="0.8" stop-color="white"/>
<stop offset="0.87" stop-color="#FDFDFD"/>
<stop offset="0.9" stop-color="#F6F6F6"/>
<stop offset="0.92" stop-color="#EAE9EA"/>
<stop offset="0.93" stop-color="#D9D8D8"/>
<stop offset="0.95" stop-color="#C3C2C2"/>
<stop offset="0.96" stop-color="#A7A6A6"/>
<stop offset="0.97" stop-color="#878585"/>
<stop offset="0.99" stop-color="#615E5F"/>
<stop offset="1" stop-color="#231F20"/>
</radialGradient>
<radialGradient id="paint9_radial_182_182" cx="0" cy="0" r="1" gradientUnits="userSpaceOnUse" gradientTransform="translate(246.17 138.372) rotate(180) scale(73.1147 73.1206)">
<stop/>
<stop offset="1" stop-color="white"/>
</radialGradient>
<linearGradient id="paint10_linear_182_182" x1="266.526" y1="-22.1719" x2="622.085" y2="333.359" gradientUnits="userSpaceOnUse">
<stop stop-color="#EDEBEB"/>
<stop offset="1" stop-color="white"/>
</linearGradient>
<linearGradient id="paint11_linear_182_182" x1="319.582" y1="202.929" x2="195.702" y2="79.0864" gradientUnits="userSpaceOnUse">
<stop stop-color="#9EC426"/>
<stop offset="1" stop-color="#7BA516"/>
</linearGradient>
<clipPath id="clip0_182_182">
<rect width="47" height="98" fill="white" transform="translate(217 79)"/>
</clipPath>
</defs>
</svg>
