<svg width="679" height="261" viewBox="0 0 679 261" fill="none" xmlns="http://www.w3.org/2000/svg">
<path d="M673.218 104.172L642.305 61.4798C636.972 54.1163 628.337 49.7036 619.242 49.7036H534V192.019H619.269C628.364 192.019 636.999 187.634 642.332 180.243L673.245 137.605C680.5 127.616 680.5 114.161 673.245 104.172H673.218Z" fill="url(#paint0_linear_181_146)"/>
<path style="mix-blend-mode:multiply" d="M641.168 60.1262C635.781 53.602 627.714 49.7036 619.215 49.7036H533.973V60.1262H641.195H641.168Z" fill="url(#paint1_linear_181_146)"/>
<path d="M71.653 220.499C32.1315 220.499 0 188.365 0 148.84V94.399C0 54.8743 32.1315 22.7402 71.653 22.7402H436.956C491.474 22.7402 535.841 67.1107 535.841 121.633C535.841 176.155 491.474 220.526 436.956 220.526H71.653V220.499Z" fill="url(#paint2_linear_181_146)"/>
<path style="mix-blend-mode:multiply" d="M517.677 64.5932C499.757 39.2812 470.278 22.7134 436.956 22.7134H71.6528C42.7697 22.7134 17.8387 39.9038 6.49658 64.5932H517.65H517.677Z" fill="url(#paint3_linear_181_146)"/>
<path d="M619.513 63.5376H533.188V178.186H619.54C624.304 178.186 628.77 175.912 631.586 172.041L662.336 129.62C666.099 124.422 666.126 117.383 662.336 112.158L631.558 69.6828C628.77 65.8116 624.277 63.5376 619.513 63.5376Z" fill="url(#paint4_linear_181_146)"/>
<path style="mix-blend-mode:multiply" d="M458.855 260.538C524.71 260.538 578.096 207.148 578.096 141.287C578.096 75.427 524.71 22.0366 458.855 22.0366C393 22.0366 339.614 75.427 339.614 141.287C339.614 207.148 393 260.538 458.855 260.538Z" fill="url(#paint5_radial_181_146)"/>
<path d="M439.663 241.75C506.415 241.75 560.528 187.633 560.528 120.875C560.528 54.1176 506.415 0 439.663 0C372.911 0 318.797 54.1176 318.797 120.875C318.797 187.633 372.911 241.75 439.663 241.75Z" fill="url(#paint6_linear_181_146)"/>
<path d="M439.663 218.252C493.438 218.252 537.032 174.655 537.032 120.875C537.032 67.0952 493.438 23.498 439.663 23.498C385.887 23.498 342.294 67.0952 342.294 120.875C342.294 174.655 385.887 218.252 439.663 218.252Z" fill="url(#paint7_linear_181_146)"/>
<path style="mix-blend-mode:multiply" d="M439.663 218.252C493.438 218.252 537.032 174.655 537.032 120.875C537.032 67.0952 493.438 23.498 439.663 23.498C385.887 23.498 342.294 67.0952 342.294 120.875C342.294 174.655 385.887 218.252 439.663 218.252Z" fill="url(#paint8_radial_181_146)"/>
<path style="mix-blend-mode:multiply" d="M501.255 184.958C529.808 156.403 529.808 110.105 501.255 81.5498C472.702 52.9945 426.409 52.9944 397.855 81.5498C369.302 110.105 369.302 156.403 397.855 184.958C426.409 213.513 472.702 213.513 501.255 184.958Z" fill="url(#paint9_radial_181_146)"/>
<g filter="url(#filter0_d_181_146)">
<path d="M439.663 45.1559H74.9556C48.6711 45.1559 27.3674 66.4614 27.3674 92.748V148.922C27.3674 175.208 48.6711 196.514 74.9556 196.514H439.663C481.458 196.514 515.349 162.62 515.349 120.821C515.349 79.0226 481.458 45.1289 439.663 45.1289V45.1559Z" fill="url(#paint10_linear_181_146)"/>
</g>
<path d="M439.663 179.783C472.194 179.783 498.566 153.409 498.566 120.875C498.566 88.3412 472.194 61.9673 439.663 61.9673C407.131 61.9673 380.76 88.3412 380.76 120.875C380.76 153.409 407.131 179.783 439.663 179.783Z" fill="url(#paint11_linear_181_146)"/>
<g clip-path="url(#clip0_181_146)">
<path d="M470.762 93.9296V93.5805L470.653 93.7738C467.294 89.166 462.992 85.2473 457.98 82.3542L457.84 82.2669L457.632 82.1578C457.286 81.977 456.919 81.818 456.539 81.6933L456.231 81.5935L456.063 81.553C455.907 81.5124 455.748 81.475 455.599 81.447L455.3 81.394L455.082 81.369C454.799 81.3379 454.519 81.3223 454.242 81.3223C453.965 81.3223 453.675 81.3379 453.298 81.3815C453.031 81.4158 452.775 81.4657 452.508 81.5311L452.318 81.581C452.1 81.6403 451.776 81.74 451.403 81.899C451.141 82.0081 450.892 82.1328 450.64 82.2762L450.534 82.3355L450.285 82.4913C449.837 82.7813 449.423 83.118 449.055 83.4952C448.984 83.57 448.906 83.648 448.834 83.729L448.7 83.8787L448.486 84.1468C448.324 84.3556 448.171 84.5739 448.037 84.7921L447.455 85.7367C446.64 85.4842 445.815 85.2566 444.977 85.0664L442.079 84.3899C442.079 84.3899 436.712 84.0844 432.821 84.5645C422.445 86.0266 413.281 92.2337 408.11 101.402C400.704 114.53 403.107 130.863 413.156 141.388L412.512 142.432C412.434 142.567 412.353 142.71 412.272 142.872L412.197 143.022L412.073 143.293C411.936 143.611 411.821 143.941 411.74 144.25C411.665 144.527 411.603 144.817 411.559 145.107L411.531 145.329C411.5 145.606 411.481 145.89 411.481 146.167C411.481 146.314 411.488 146.451 411.494 146.594L411.506 146.806L411.528 146.969C411.55 147.165 411.581 147.374 411.622 147.58L411.65 147.726L411.699 147.929C411.815 148.403 411.98 148.858 412.144 149.204L412.253 149.438L412.337 149.594C412.44 149.79 412.602 150.08 412.842 150.407C412.982 150.604 413.131 150.794 413.296 150.978C413.505 151.218 413.732 151.445 413.975 151.657C414.127 151.791 414.28 151.916 414.436 152.031C414.551 152.119 414.663 152.197 414.781 152.271C417.661 154.186 420.805 155.713 424.089 156.848L425.387 166.067H449.578L450.87 156.892C459.829 153.815 467.391 147.782 472.434 139.602C478.196 130.249 479.98 119.21 477.452 108.52C476.201 103.223 473.897 98.2755 470.759 93.9265L470.762 93.9296Z" fill="#A7A9AC"/>
<path d="M467.97 88.6923V88.3432L467.861 88.5365C464.502 83.9287 460.2 80.01 455.188 77.1169L455.048 77.0296L454.839 76.9205C454.494 76.7396 454.126 76.5807 453.747 76.4559L453.438 76.3562L453.27 76.3157C453.115 76.2751 452.956 76.2377 452.806 76.2097L452.508 76.1567L452.29 76.1317C452.006 76.1005 451.726 76.085 451.449 76.085C451.172 76.085 450.883 76.1005 450.506 76.1442C450.238 76.1785 449.983 76.2284 449.715 76.2938L449.525 76.3437C449.307 76.403 448.984 76.5027 448.61 76.6617C448.349 76.7708 448.1 76.8955 447.847 77.0389L447.742 77.0982L447.493 77.254C447.044 77.544 446.63 77.8807 446.263 78.2579C446.191 78.3327 446.114 78.4107 446.042 78.4917L445.908 78.6414L445.693 78.9095C445.531 79.1183 445.379 79.3334 445.245 79.5548L444.663 80.4994C443.847 80.2469 443.022 80.0193 442.185 79.8291L439.287 79.1526C439.287 79.1526 433.92 78.8471 430.029 79.3272C419.65 80.7769 410.485 86.987 405.318 96.1526C397.912 109.29 400.315 125.623 410.364 136.148L409.719 137.192C409.642 137.326 409.561 137.47 409.48 137.632L409.405 137.781L409.281 138.053C409.144 138.371 409.028 138.701 408.947 139.01C408.873 139.287 408.81 139.577 408.767 139.867L408.739 140.088C408.708 140.366 408.689 140.649 408.689 140.927C408.689 141.073 408.695 141.211 408.702 141.354L408.714 141.566L408.736 141.728C408.758 141.925 408.789 142.133 408.829 142.339L408.857 142.486L408.907 142.688C409.022 143.162 409.187 143.617 409.352 143.96L409.461 144.194L409.545 144.35C409.648 144.546 409.81 144.836 410.049 145.164C410.19 145.36 410.339 145.55 410.504 145.734C410.713 145.974 410.94 146.202 411.183 146.414C411.335 146.548 411.488 146.673 411.643 146.788C411.758 146.875 411.871 146.953 411.989 147.028C414.868 148.942 418.012 150.47 421.297 151.605L422.595 160.823H446.786L448.078 151.648C457.037 148.571 464.599 142.539 469.642 134.358C475.404 125.006 477.188 113.966 474.66 103.276C473.408 97.9795 471.105 93.032 467.967 88.683L467.97 88.6923Z" fill="white"/>
<path d="M429.624 107.329C429.026 107.329 428.625 107.111 428.373 106.889C428.787 107.669 429.135 108.382 429.437 109.034C429.35 108.42 429.524 107.824 429.73 107.329C429.696 107.329 429.658 107.329 429.624 107.329Z" fill="black"/>
<path d="M430.035 92.2928C428.653 93.1688 427.46 93.9264 426.965 95.2264C426.355 96.8288 426.318 98.849 426.29 100.324C426.284 100.71 426.277 101.078 426.259 101.405C426.197 102.68 426.187 102.896 427.797 105.832C427.772 105.676 427.759 105.505 427.769 105.312C427.859 103.466 429.163 102.222 431.009 102.222C431.766 102.222 432.603 102.412 433.562 102.802C434.044 102.998 434.477 103.192 434.86 103.363C435.719 103.747 436.398 104.049 436.89 104.049C437.198 104.049 437.668 103.94 438.58 103.104C440.716 101.147 442.895 100.735 444.345 100.735C445.164 100.735 445.958 100.86 446.705 101.109C446.745 101.122 446.783 101.131 446.817 101.131C446.966 101.131 447.06 100.978 447.094 100.913C447.275 100.561 447.247 99.8715 446.627 98.9955C445.992 98.0945 445.503 97.2372 445.071 96.4796C444.784 95.9777 444.414 95.3293 444.165 95.0082C443.604 95.2139 442.901 95.4103 442.263 95.4103C441.26 95.4103 440.759 94.9115 440.551 94.6153C440.295 94.2537 440.059 93.6302 440.382 92.7292C440.731 91.7566 441.444 91.3388 442.157 91.1424C441.64 90.8556 441.148 90.5594 440.737 90.2383C440.666 90.1853 440.603 90.1198 440.544 90.0513C440.342 89.8143 440.183 89.6335 440.056 89.4839C439.377 88.7014 439.315 88.5954 438.736 87.4294L438.536 87.0303C437.936 85.8301 437.718 85.8239 436.28 85.8052H436.133C435.71 85.7958 435.268 85.7927 434.966 85.802C435.013 87.7162 433.157 90.1136 431.482 91.3295C431.003 91.6755 430.508 91.9904 430.035 92.2928Z" fill="black"/>
<path d="M437.721 149.466H431.666C430.67 151.667 427.803 153.419 422.981 154.787C422.853 154.825 422.726 154.856 422.598 154.893H446.792C446.665 154.856 446.537 154.825 446.409 154.787C441.587 153.422 438.717 151.667 437.724 149.466H437.721Z" fill="black"/>
<path d="M457.535 123.568C457.697 124.067 458.497 124.17 459.141 124.17C459.468 124.17 459.783 124.142 460.041 124.107C460.71 122.24 462.382 116.585 462.32 111.104C462.055 111.6 461.679 112.133 461.165 112.706C459.004 115.123 456.965 121.8 457.532 123.568H457.535Z" fill="black"/>
<path d="M419.199 135.879C419.787 136.275 420.397 136.653 421.023 137.005C421.427 137.232 421.838 137.451 422.252 137.656C426.106 139.589 430.368 140.606 434.664 140.606C444.526 140.606 453.675 135.356 458.659 126.873C456.088 126.714 455.231 125.277 454.951 124.401C453.983 121.392 456.663 113.664 459.145 110.889C460.178 109.736 460.138 109.265 460.125 109.109C460.088 108.676 459.699 108.102 459.21 107.376C459.045 107.129 458.867 106.867 458.693 106.59C457.47 104.676 457 102.649 456.583 100.863C456.461 100.342 456.346 99.8468 456.221 99.3978C456.125 99.058 456.028 98.7463 455.932 98.4439C455.54 97.2093 455.166 96.0278 455.717 94.5251C453.656 92.1433 451.178 90.1106 448.361 88.5176C446.008 87.1864 443.477 86.2075 440.862 85.6089C440.899 85.6744 440.933 85.7461 440.968 85.8147L441.167 86.2168C441.48 86.8445 441.793 87.3381 442.104 87.6977C442.216 87.8286 442.353 87.9845 442.515 88.1746C442.957 88.4989 443.654 88.8667 444.274 89.191C445.84 90.0109 446.973 90.6063 446.882 91.8409C446.861 92.109 446.742 92.692 446.095 93.1004C446.571 93.6335 446.985 94.3536 447.424 95.1299C447.826 95.8313 448.28 96.6294 448.837 97.4213C449.964 99.0112 450.213 100.785 449.504 102.16C448.968 103.201 447.935 103.85 446.814 103.85C446.487 103.85 446.163 103.797 445.849 103.691C445.385 103.538 444.865 103.454 444.345 103.454C443.377 103.454 441.905 103.741 440.414 105.109C439.165 106.256 438.076 106.768 436.887 106.768C435.816 106.768 434.86 106.341 433.752 105.845C433.419 105.698 433.079 105.546 432.709 105.393C433.251 106.297 432.709 107.397 432.451 107.915C432.351 108.114 432.195 108.429 432.149 108.607C432.79 109.614 432.637 110.596 432.535 111.251C432.488 111.572 432.457 111.793 432.482 111.952C432.687 112.071 433.226 112.208 433.593 112.304C434.312 112.492 435.209 112.725 436.043 113.202L436.192 113.287C437.858 114.24 439.296 115.06 441.799 119.119C442.86 120.84 443.405 121.869 443.841 122.695C444.376 123.712 444.7 124.32 445.656 125.551C448.149 128.759 446.079 130.72 444.414 132.291L444.174 132.519C441.646 134.922 434.704 136.051 432.634 136.341C430.798 136.596 429.303 136.618 428.105 136.637C426.962 136.653 426.063 136.665 425.449 136.88C425.225 136.958 425.023 137.033 424.842 137.105C424.291 137.317 423.818 137.497 423.295 137.497C422.953 137.497 422.663 137.426 422.42 137.307C421.546 136.883 421.234 135.873 421.116 135.483C420.5 133.47 422.33 132.241 423.669 131.343C424.245 130.957 424.842 130.558 425.275 130.134C427.021 128.432 427.535 127.141 426.997 125.813C425.954 123.244 425.496 119.494 427.653 117.392C428.285 116.775 428.892 116.304 429.381 115.927C429.577 115.774 429.814 115.59 430.007 115.428C429.82 115.291 429.621 115.117 429.409 114.892C428.762 114.187 428.32 113.19 427.709 111.809C427.208 110.671 426.583 109.256 425.646 107.56C423.579 103.819 423.445 103.229 423.544 101.268C423.557 100.982 423.566 100.635 423.572 100.268C423.607 98.5935 423.65 96.299 424.425 94.2539C425.241 92.109 427.015 90.9804 428.578 89.9891C429.039 89.696 429.478 89.4185 429.889 89.1193C431.336 88.0718 432.211 86.4288 432.248 85.9144C432.083 85.5933 432.018 85.2971 432.012 85.0415C423.043 85.9238 414.959 91.127 410.482 99.0674C403.3 111.809 407.257 127.861 419.199 135.873V135.879Z" fill="black"/>
<path d="M431.047 118.088C430.589 118.44 430.072 118.839 429.552 119.344C428.494 120.376 428.737 122.867 429.518 124.793C430.975 128.382 428.114 131.172 427.174 132.085C426.561 132.684 425.829 133.173 425.185 133.607C424.793 133.869 424.195 134.268 423.89 134.564C424.092 134.486 424.316 134.402 424.562 134.314C425.59 133.959 426.685 133.943 428.074 133.922C429.254 133.906 430.595 133.887 432.264 133.65C437.02 132.983 441.058 131.736 442.309 130.548L442.555 130.318C443.246 129.663 443.897 129.046 444.065 128.6C444.112 128.475 444.233 128.145 443.517 127.225C442.418 125.81 442.011 125.037 441.447 123.974C441.027 123.182 440.507 122.197 439.492 120.554C437.357 117.084 436.304 116.482 434.851 115.653L434.701 115.565C434.219 115.288 433.63 115.126 433.055 114.973C433.058 115.141 433.048 115.285 433.042 115.378C432.942 116.616 432.021 117.327 431.05 118.081L431.047 118.088Z" fill="black"/>
<path d="M461.473 105.296L461.458 105.246C460.804 102.964 459.892 100.959 459.014 99.3477C459.085 99.6376 459.154 99.9369 459.225 100.246C459.608 101.895 460.004 103.603 460.975 105.121C461.14 105.38 461.305 105.623 461.461 105.851C461.548 105.979 461.632 106.107 461.719 106.234C461.66 105.994 461.598 105.754 461.532 105.514C461.514 105.442 461.495 105.368 461.473 105.296Z" fill="black"/>
<path d="M468.891 104.651C466.662 95.2171 460.564 87.0491 452.156 82.2231L452.115 82.1982L452.072 82.1764C452.003 82.139 451.935 82.114 451.869 82.0891C451.841 82.0797 451.817 82.0704 451.785 82.0642C451.757 82.0548 451.729 82.0486 451.701 82.0423C451.673 82.0392 451.642 82.033 451.614 82.0299C451.496 82.0174 451.381 82.0174 451.266 82.0299C451.213 82.0361 451.16 82.0486 451.104 82.061C451.045 82.0766 450.982 82.0953 450.926 82.1203C450.873 82.1421 450.82 82.167 450.767 82.1982C450.743 82.2107 450.718 82.2263 450.693 82.245C450.618 82.2917 450.546 82.3479 450.484 82.4164C450.462 82.4383 450.441 82.4601 450.422 82.4819C450.403 82.5037 450.385 82.5287 450.366 82.5536C450.338 82.591 450.31 82.6284 450.285 82.669L448.523 85.5278C448.915 85.7273 449.307 85.9362 449.69 86.1544C450.095 86.382 450.497 86.622 450.889 86.8683C453.828 88.7045 456.39 90.9928 458.503 93.6396C458.531 93.677 458.566 93.7176 458.606 93.7674C458.696 93.8797 458.783 93.995 458.871 94.1104C460.044 95.6598 462.849 99.75 464.256 105.215C464.318 105.446 464.374 105.683 464.427 105.92C464.455 106.038 464.48 106.157 464.505 106.278C464.533 106.4 464.558 106.521 464.583 106.643C465.925 113.152 465.122 119.83 462.276 125.835C462.261 125.872 462.245 125.903 462.23 125.931C461.931 126.561 461.607 127.181 461.261 127.796C455.857 137.382 445.662 143.336 434.655 143.336C429.431 143.336 424.254 141.971 419.681 139.383C419.395 139.221 419.111 139.056 418.831 138.885C418.05 138.411 417.297 137.906 416.574 137.37L414.847 140.172L414.819 140.222C414.8 140.25 414.784 140.278 414.772 140.306C414.756 140.337 414.741 140.369 414.725 140.397C414.7 140.453 414.678 140.512 414.663 140.571C414.647 140.63 414.635 140.693 414.626 140.752C414.619 140.811 414.613 140.871 414.613 140.93C414.613 140.967 414.613 141.005 414.616 141.042C414.616 141.064 414.619 141.083 414.622 141.104C414.622 141.132 414.629 141.16 414.635 141.189C414.638 141.217 414.647 141.245 414.654 141.273C414.672 141.348 414.697 141.422 414.731 141.494C414.744 141.519 414.753 141.544 414.769 141.569C414.794 141.616 414.822 141.665 414.856 141.712C414.887 141.759 414.921 141.8 414.959 141.843C414.996 141.887 415.036 141.924 415.08 141.965C415.102 141.983 415.124 142.002 415.145 142.018C415.17 142.036 415.192 142.055 415.217 142.071L415.254 142.096C419.718 145.064 424.786 146.937 430.016 147.642C431.576 147.854 433.151 147.96 434.729 147.96C436.308 147.96 437.811 147.857 439.349 147.654C440.498 147.502 441.64 147.293 442.78 147.021C451.913 144.855 459.658 139.256 464.589 131.253C469.52 123.25 471.046 113.807 468.882 104.657L468.891 104.651Z" fill="black"/>
</g>
<defs>
<filter id="filter0_d_181_146" x="21.3674" y="39.1289" width="507.982" height="171.385" filterUnits="userSpaceOnUse" color-interpolation-filters="sRGB">
<feFlood flood-opacity="0" result="BackgroundImageFix"/>
<feColorMatrix in="SourceAlpha" type="matrix" values="0 0 0 0 0 0 0 0 0 0 0 0 0 0 0 0 0 0 127 0" result="hardAlpha"/>
<feOffset dx="4" dy="4"/>
<feGaussianBlur stdDeviation="5"/>
<feColorMatrix type="matrix" values="0 0 0 0 0 0 0 0 0 0 0 0 0 0 0 0 0 0 0.15 0"/>
<feBlend mode="normal" in2="BackgroundImageFix" result="effect1_dropShadow_181_146"/>
<feBlend mode="normal" in="SourceGraphic" in2="effect1_dropShadow_181_146" result="shape"/>
</filter>
<linearGradient id="paint0_linear_181_146" x1="657.626" y1="195.972" x2="550.395" y2="88.7768" gradientUnits="userSpaceOnUse">
<stop stop-color="#C9C0C0"/>
<stop offset="1" stop-color="#E5DFDF"/>
</linearGradient>
<linearGradient id="paint1_linear_181_146" x1="587.57" y1="58.7997" x2="587.57" y2="6.11814" gradientUnits="userSpaceOnUse">
<stop stop-color="white"/>
<stop offset="1"/>
</linearGradient>
<linearGradient id="paint2_linear_181_146" x1="419.712" y1="281.41" x2="22.5168" y2="-115.753" gradientUnits="userSpaceOnUse">
<stop stop-color="#C9C0C0"/>
<stop offset="1" stop-color="#E5DFDF"/>
</linearGradient>
<linearGradient id="paint3_linear_181_146" x1="262.087" y1="35.8431" x2="262.087" y2="-99.867" gradientUnits="userSpaceOnUse">
<stop stop-color="white"/>
<stop offset="1"/>
</linearGradient>
<linearGradient id="paint4_linear_181_146" x1="533.161" y1="120.848" x2="665.152" y2="120.848" gradientUnits="userSpaceOnUse">
<stop stop-color="#E94948"/>
<stop offset="1" stop-color="#DF2D2D"/>
</linearGradient>
<radialGradient id="paint5_radial_181_146" cx="0" cy="0" r="1" gradientUnits="userSpaceOnUse" gradientTransform="translate(458.855 141.287) scale(119.241 119.251)">
<stop/>
<stop offset="1" stop-color="white"/>
</radialGradient>
<linearGradient id="paint6_linear_181_146" x1="318.797" y1="120.875" x2="560.528" y2="120.875" gradientUnits="userSpaceOnUse">
<stop stop-color="#E94948"/>
<stop offset="1" stop-color="#DF2D2D"/>
</linearGradient>
<linearGradient id="paint7_linear_181_146" x1="342.294" y1="120.875" x2="537.032" y2="120.875" gradientUnits="userSpaceOnUse">
<stop stop-color="#E5DFDF"/>
<stop offset="1" stop-color="#C9C0C0"/>
</linearGradient>
<radialGradient id="paint8_radial_181_146" cx="0" cy="0" r="1" gradientUnits="userSpaceOnUse" gradientTransform="translate(442.045 124.367) scale(105.246 105.255)">
<stop offset="0.8" stop-color="white"/>
<stop offset="0.87" stop-color="#FDFDFD"/>
<stop offset="0.9" stop-color="#F6F6F6"/>
<stop offset="0.92" stop-color="#EAE9EA"/>
<stop offset="0.93" stop-color="#D9D8D8"/>
<stop offset="0.95" stop-color="#C3C2C2"/>
<stop offset="0.96" stop-color="#A7A6A6"/>
<stop offset="0.97" stop-color="#878585"/>
<stop offset="0.99" stop-color="#615E5F"/>
<stop offset="1" stop-color="#231F20"/>
</radialGradient>
<radialGradient id="paint9_radial_181_146" cx="0" cy="0" r="1" gradientUnits="userSpaceOnUse" gradientTransform="translate(449.559 133.268) scale(73.1147 73.1206)">
<stop/>
<stop offset="1" stop-color="white"/>
</radialGradient>
<linearGradient id="paint10_linear_181_146" x1="406.151" y1="263.895" x2="50.6186" y2="-91.6085" gradientUnits="userSpaceOnUse">
<stop stop-color="#EDEBEB"/>
<stop offset="1" stop-color="white"/>
</linearGradient>
<linearGradient id="paint11_linear_181_146" x1="380.76" y1="120.875" x2="498.566" y2="120.875" gradientUnits="userSpaceOnUse">
<stop stop-color="#E94948"/>
<stop offset="1" stop-color="#DF2D2D"/>
</linearGradient>
<clipPath id="clip0_181_146">
<rect width="77.576" height="89.9881" fill="white" transform="translate(401 76.0815)"/>
</clipPath>
</defs>
</svg>
