<svg width="498" height="166" viewBox="0 0 498 166" fill="none" xmlns="http://www.w3.org/2000/svg">
<path d="M41.5575 25.6076C51.951 25.6076 60.8481 29.2919 68.249 36.6606C75.6177 44.0293 79.302 52.9104 79.302 63.3038C79.302 73.6972 75.6177 82.5782 68.249 89.9469C60.8481 97.3156 51.951 101 41.5575 101C31.1641 101 22.2831 97.3156 14.9144 89.9469C7.54568 82.5782 3.86133 73.6972 3.86133 63.3038C3.86133 52.9104 7.54568 44.0293 14.9144 36.6606C22.2831 29.2919 31.1641 25.6076 41.5575 25.6076ZM41.5575 37.3846C34.4141 37.3846 28.3164 39.9106 23.2645 44.9625C18.2126 50.0144 15.6866 56.1282 15.6866 63.3038C15.6866 70.4794 18.2126 76.5932 23.2645 81.6451C28.3164 86.6648 34.4141 89.1747 41.5575 89.1747C48.7332 89.1747 54.8469 86.6648 59.8989 81.6451C64.9508 76.5932 67.4767 70.4794 67.4767 63.3038C67.4767 56.1282 64.9508 50.0144 59.8989 44.9625C54.8469 39.9106 48.7332 37.3846 41.5575 37.3846ZM99.8636 95.1597C99.8636 96.8008 99.2844 98.1684 98.126 99.2624C96.9676 100.421 95.6 101 94.0233 101H93.8785C92.3018 101 90.9343 100.421 89.7759 99.2624C88.6175 98.1684 88.0383 96.8008 88.0383 95.1597V68.7579C88.0383 62.3224 90.3229 56.82 94.8921 52.2507C99.4614 47.6815 104.964 45.3969 111.399 45.3969C117.803 45.3969 123.289 47.6815 127.858 52.2507C132.427 56.82 134.712 62.3224 134.712 68.7579V95.1597C134.712 96.8008 134.133 98.1684 132.974 99.2624C131.88 100.421 130.513 101 128.872 101H128.775C127.166 101 125.783 100.421 124.624 99.2624C123.466 98.1684 122.887 96.8008 122.887 95.1597V68.7579C122.887 65.5723 121.777 62.8533 119.556 60.6009C117.304 58.3484 114.585 57.2222 111.399 57.2222C108.182 57.2222 105.446 58.3484 103.194 60.6009C100.974 62.8533 99.8636 65.5723 99.8636 68.7579V95.1597ZM152.329 25.6076C153.906 25.6076 155.274 26.1707 156.432 27.2969C157.59 28.4553 158.17 29.8389 158.17 31.4478V95.1597C158.17 96.8008 157.59 98.1684 156.432 99.2624C155.274 100.421 153.906 101 152.329 101H152.185C150.608 101 149.24 100.421 148.082 99.2624C146.924 98.1684 146.344 96.8008 146.344 95.1597V31.4478C146.344 29.8389 146.924 28.4553 148.082 27.2969C149.24 26.1707 150.608 25.6076 152.185 25.6076H152.329ZM177.573 45.3969C179.214 45.3969 180.581 45.9761 181.675 47.1345C182.834 48.2929 183.413 49.6765 183.413 51.2854V95.1597C183.413 96.8008 182.834 98.1684 181.675 99.2624C180.581 100.421 179.214 101 177.573 101H177.476C175.867 101 174.484 100.421 173.325 99.2624C172.167 98.1684 171.588 96.8008 171.588 95.1597V51.2854C171.588 49.6765 172.167 48.2929 173.325 47.1345C174.484 45.9761 175.867 45.3969 177.476 45.3969H177.573ZM177.525 39.1222C175.658 39.1222 174.065 38.4626 172.746 37.1433C171.427 35.824 170.767 34.2312 170.767 32.3649C170.767 30.5308 171.427 28.9541 172.746 27.6348C174.065 26.3155 175.658 25.6558 177.525 25.6558C179.359 25.6558 180.935 26.3155 182.255 27.6348C183.606 28.9219 184.282 30.4986 184.282 32.3649C184.282 34.2634 183.606 35.8562 182.255 37.1433C180.935 38.4626 179.359 39.1222 177.525 39.1222ZM206.726 95.1597C206.726 96.8008 206.147 98.1684 204.988 99.2624C203.83 100.421 202.462 101 200.886 101H200.741C199.164 101 197.797 100.421 196.638 99.2624C195.48 98.1684 194.901 96.8008 194.901 95.1597V68.7579C194.901 62.3224 197.185 56.82 201.754 52.2507C206.324 47.6815 211.826 45.3969 218.262 45.3969C224.665 45.3969 230.151 47.6815 234.72 52.2507C239.29 56.82 241.574 62.3224 241.574 68.7579V95.1597C241.574 96.8008 240.995 98.1684 239.837 99.2624C238.743 100.421 237.375 101 235.734 101H235.638C234.029 101 232.645 100.421 231.487 99.2624C230.328 98.1684 229.749 96.8008 229.749 95.1597V68.7579C229.749 65.5723 228.639 62.8533 226.419 60.6009C224.166 58.3484 221.447 57.2222 218.262 57.2222C215.044 57.2222 212.309 58.3484 210.056 60.6009C207.836 62.8533 206.726 65.5723 206.726 68.7579V95.1597ZM277.629 57.3187C273.189 57.3187 269.408 58.8793 266.287 62.0006C263.198 65.1218 261.653 68.9027 261.653 73.3432V73.6811L288.634 61.5662C286.253 58.7345 282.585 57.3187 277.629 57.3187ZM302.873 61.6145C303.259 62.4189 303.452 63.2394 303.452 64.0761C303.452 64.7518 303.323 65.4275 303.066 66.1032C302.519 67.6156 301.489 68.7096 299.977 69.3854C295.472 71.4126 289.551 74.0833 282.215 77.3976C273.109 81.5164 267.767 83.9458 266.19 84.6859C268.636 87.775 272.449 89.3195 277.629 89.3195C281.073 89.3195 284.194 88.3059 286.993 86.2787C289.728 84.2837 291.643 81.7094 292.737 78.556C293.67 75.9175 295.536 74.5982 298.336 74.5982C300.331 74.5982 301.924 75.4348 303.114 77.108C303.854 78.1377 304.224 79.2157 304.224 80.3419C304.224 81.0176 304.096 81.7094 303.838 82.4174C301.94 87.9198 298.609 92.3603 293.847 95.7389C289.02 99.2463 283.615 101 277.629 101C269.971 101 263.423 98.281 257.985 92.8429C252.547 87.4049 249.828 80.8567 249.828 73.1984C249.828 65.5401 252.547 58.992 257.985 53.5539C263.423 48.1159 269.971 45.3969 277.629 45.3969C283.164 45.3969 288.216 46.9092 292.785 49.9339C297.322 52.8943 300.685 56.7878 302.873 61.6145ZM354.808 65.0414H368.612C372.441 65.0414 375.707 63.6899 378.41 60.987C381.081 58.3162 382.416 55.0663 382.416 51.2371C382.416 47.408 381.081 44.1419 378.41 41.439C375.707 38.7361 372.441 37.3846 368.612 37.3846C364.783 37.3846 361.517 38.7361 358.814 41.439C356.143 44.1419 354.808 47.408 354.808 51.2371V65.0414ZM354.808 76.8667V95.1597C354.808 96.8008 354.229 98.1684 353.07 99.2624C351.912 100.421 350.544 101 348.968 101H348.823C347.246 101 345.878 100.421 344.72 99.2624C343.562 98.1684 342.982 96.8008 342.982 95.1597V51.2371C342.982 44.158 345.492 38.1086 350.512 33.0889C355.532 28.1013 361.565 25.6076 368.612 25.6076C375.691 25.6076 381.724 28.1013 386.712 33.0889C391.732 38.1086 394.242 44.158 394.242 51.2371C394.242 58.2841 391.732 64.3174 386.712 69.3371C381.724 74.3568 375.691 76.8667 368.612 76.8667H354.808ZM408.915 25.6076C410.491 25.6076 411.859 26.1707 413.017 27.2969C414.176 28.4553 414.755 29.8389 414.755 31.4478V55.0019H419.775C424.183 55.0019 427.932 53.4574 431.021 50.3683C434.142 47.2471 435.719 43.4984 435.751 39.1222V31.4478C435.751 29.8389 436.33 28.4553 437.488 27.2969C438.615 26.1707 439.982 25.6076 441.591 25.6076H441.736C443.313 25.6076 444.68 26.1707 445.839 27.2969C446.997 28.4553 447.576 29.8389 447.576 31.4478V39.1222C447.576 48.4216 444.423 55.4202 438.116 60.1182C440.98 61.8558 443.602 64.8 445.983 68.951C448.429 73.2306 449.652 77.8481 449.652 82.8035V95.1597C449.652 96.7686 449.089 98.1362 447.962 99.2624C446.804 100.421 445.42 101 443.811 101H443.715C442.106 101 440.722 100.421 439.564 99.2624C438.438 98.1362 437.875 96.7686 437.875 95.1597V82.8035C437.842 78.4273 436.266 74.6786 433.144 71.5574C430.023 68.4683 426.258 66.9238 421.85 66.9238H414.755V95.1597C414.755 96.8008 414.176 98.1684 413.017 99.2624C411.859 100.421 410.491 101 408.915 101H408.77C407.193 101 405.826 100.421 404.667 99.2624C403.509 98.1684 402.93 96.8008 402.93 95.1597V31.4478C402.93 29.8389 403.509 28.4553 404.667 27.2969C405.826 26.1707 407.193 25.6076 408.77 25.6076H408.915ZM471.13 83.3827C471.13 84.9916 471.693 86.3591 472.82 87.4854C473.946 88.6116 475.313 89.1747 476.922 89.1747H490.968C492.577 89.1747 493.96 89.7539 495.119 90.9123C496.277 92.0707 496.856 93.4543 496.856 95.0632V95.1597C496.856 96.8008 496.277 98.1684 495.119 99.2624C493.96 100.421 492.577 101 490.968 101H476.922C472.063 101 467.913 99.2785 464.469 95.8355C461.026 92.3925 459.305 88.2415 459.305 83.3827V31.4478C459.305 29.8389 459.884 28.4553 461.043 27.2969C462.201 26.1707 463.569 25.6076 465.145 25.6076H465.29C466.867 25.6076 468.234 26.1707 469.393 27.2969C470.551 28.4553 471.13 29.8389 471.13 31.4478V83.3827Z" fill="#252A60"/>
<path d="M279.447 144.84C281.951 144.84 284.088 143.954 285.861 142.182C287.633 140.409 288.519 138.272 288.519 135.768C288.519 133.247 287.633 131.1 285.861 129.328C284.107 127.574 281.969 126.697 279.447 126.697C276.926 126.697 274.779 127.574 273.007 129.328C271.253 131.1 270.376 133.247 270.376 135.768C270.376 138.272 271.253 140.409 273.007 142.182C274.779 143.954 276.926 144.84 279.447 144.84ZM266.977 162.874C266.082 162.874 265.305 162.545 264.647 161.888C263.99 161.23 263.661 160.453 263.661 159.558V135.768C263.679 131.402 265.232 127.692 268.32 124.641C271.39 121.572 275.099 120.037 279.447 120.037C283.796 120.037 287.514 121.581 290.602 124.669C293.69 127.756 295.234 131.475 295.234 135.823C295.234 140.172 293.69 143.89 290.602 146.978C287.514 150.066 283.796 151.61 279.447 151.61C275.464 151.61 272.44 150.696 270.376 148.869V159.558C270.376 160.453 270.047 161.23 269.389 161.888C268.731 162.545 267.955 162.874 267.059 162.874H266.977ZM313.542 120.037C314.455 120.037 315.241 120.366 315.899 121.023C316.538 121.681 316.858 122.467 316.858 123.38V123.435C316.858 124.349 316.538 125.125 315.899 125.765C315.241 126.423 314.455 126.752 313.542 126.752H311.98C310.481 126.752 309.212 127.272 308.17 128.314C307.147 129.355 306.626 130.625 306.608 132.123V148.294C306.608 149.225 306.279 150.002 305.621 150.623C304.963 151.281 304.187 151.61 303.292 151.61H303.209C302.314 151.61 301.538 151.281 300.88 150.623C300.222 150.002 299.893 149.225 299.893 148.294V132.123C299.93 128.78 301.108 125.929 303.429 123.572C305.786 121.215 308.636 120.037 311.98 120.037H313.542ZM334.865 126.806C332.343 126.806 330.196 127.692 328.424 129.465C326.67 131.237 325.793 133.384 325.793 135.906C325.793 138.409 326.67 140.546 328.424 142.319C330.196 144.091 332.343 144.977 334.865 144.977C337.368 144.977 339.506 144.091 341.278 142.319C343.05 140.546 343.937 138.409 343.937 135.906C343.937 133.384 343.05 131.237 341.278 129.465C339.506 127.692 337.368 126.806 334.865 126.806ZM334.865 120.037C339.213 120.037 342.932 121.581 346.019 124.669C349.107 127.756 350.651 131.475 350.651 135.823C350.651 140.172 349.107 143.89 346.019 146.978C342.932 150.066 339.213 151.61 334.865 151.61C330.516 151.61 326.798 150.066 323.71 146.978C320.622 143.89 319.078 140.172 319.078 135.823C319.078 131.475 320.622 127.756 323.71 124.669C326.798 121.581 330.516 120.037 334.865 120.037ZM362.08 152.021C363.889 154.78 366.621 156.159 370.275 156.159C372.559 156.159 374.623 155.264 376.469 153.474C378.387 151.646 379.347 149.518 379.347 147.088C377.264 150.102 374.24 151.61 370.275 151.61C365.926 151.61 362.208 150.066 359.12 146.978C356.032 143.89 354.488 140.172 354.488 135.823C354.488 131.475 356.032 127.756 359.12 124.669C362.208 121.581 365.926 120.037 370.275 120.037C374.605 120.037 378.314 121.572 381.402 124.641C384.49 127.692 386.043 131.402 386.061 135.768V147.088C386.061 151.363 384.408 155.091 381.101 158.27C377.903 161.339 374.295 162.874 370.275 162.874C364.117 162.874 359.504 160.481 356.434 155.694C356.069 155.127 355.886 154.542 355.886 153.939C355.886 153.574 355.95 153.209 356.078 152.843C356.407 151.82 357.083 151.126 358.106 150.76L358.188 150.733C358.645 150.568 359.084 150.486 359.504 150.486C360.527 150.486 361.386 150.998 362.08 152.021ZM379.347 135.659C379.31 133.192 378.406 131.091 376.633 129.355C374.879 127.619 372.76 126.752 370.275 126.752C367.753 126.752 365.607 127.638 363.834 129.41C362.08 131.182 361.203 133.32 361.203 135.823C361.203 138.345 362.08 140.492 363.834 142.264C365.607 144.018 367.753 144.895 370.275 144.895C372.796 144.895 374.934 144.018 376.688 142.264C378.461 140.492 379.347 138.345 379.347 135.823V135.659ZM405.192 120.037C406.105 120.037 406.891 120.366 407.549 121.023C408.188 121.681 408.508 122.467 408.508 123.38V123.435C408.508 124.349 408.188 125.125 407.549 125.765C406.891 126.423 406.105 126.752 405.192 126.752H403.629C402.131 126.752 400.861 127.272 399.82 128.314C398.797 129.355 398.276 130.625 398.258 132.123V148.294C398.258 149.225 397.929 150.002 397.271 150.623C396.613 151.281 395.837 151.61 394.941 151.61H394.859C393.964 151.61 393.187 151.281 392.53 150.623C391.872 150.002 391.543 149.225 391.543 148.294V132.123C391.579 128.78 392.758 125.929 395.078 123.572C397.435 121.215 400.286 120.037 403.629 120.037H405.192ZM427.337 120.037C431.685 120.037 435.404 121.581 438.491 124.669C441.579 127.756 443.123 131.475 443.123 135.823V148.294C443.123 149.225 442.794 150.002 442.137 150.623C441.479 151.281 440.702 151.61 439.807 151.61H439.725C438.829 151.61 438.053 151.281 437.395 150.623C436.737 150.002 436.409 149.225 436.409 148.294C434.326 150.504 431.302 151.61 427.337 151.61C422.988 151.61 419.27 150.066 416.182 146.978C413.094 143.89 411.55 140.172 411.55 135.823C411.55 131.475 413.094 127.756 416.182 124.669C419.27 121.581 422.988 120.037 427.337 120.037ZM427.337 126.752C424.815 126.752 422.668 127.638 420.896 129.41C419.142 131.182 418.265 133.32 418.265 135.823C418.265 138.345 419.142 140.492 420.896 142.264C422.668 144.018 424.815 144.895 427.337 144.895C429.858 144.895 431.996 144.018 433.75 142.264C435.522 140.492 436.409 138.345 436.409 135.823C436.409 133.32 435.522 131.182 433.75 129.41C431.978 127.638 429.84 126.752 427.337 126.752ZM455.32 148.294C455.32 149.225 454.991 150.002 454.333 150.623C453.675 151.281 452.899 151.61 452.003 151.61H451.921C451.026 151.61 450.249 151.281 449.591 150.623C448.934 150.002 448.605 149.225 448.605 148.294V133.22C448.605 129.602 449.893 126.496 452.469 123.901C455.045 121.325 458.152 120.037 461.788 120.037C466.136 120.037 469.416 121.48 471.627 124.367C473.819 121.48 477.09 120.037 481.439 120.037C485.075 120.037 488.181 121.325 490.757 123.901C493.333 126.496 494.621 129.602 494.621 133.22V148.294C494.621 149.207 494.302 149.984 493.662 150.623C493.004 151.281 492.219 151.61 491.305 151.61H491.25C490.319 151.61 489.542 151.281 488.921 150.623C488.263 150.002 487.934 149.225 487.934 148.294V133.22C487.934 131.429 487.304 129.903 486.043 128.643C484.782 127.382 483.247 126.752 481.439 126.752C479.648 126.752 478.122 127.382 476.862 128.643C475.601 129.903 474.97 131.429 474.97 133.22V148.294C474.97 149.225 474.642 150.002 473.984 150.623C473.363 151.281 472.586 151.61 471.654 151.61H471.599C470.686 151.61 469.9 151.281 469.242 150.623C468.585 150.002 468.256 149.225 468.256 148.294V133.22C468.256 131.429 467.625 129.903 466.365 128.643C465.104 127.382 463.578 126.752 461.788 126.752C459.997 126.752 458.471 127.382 457.211 128.643C455.95 129.903 455.32 131.429 455.32 133.22V148.294Z" fill="#252A60"/>
</svg>
