<svg width="82" height="93" viewBox="0 0 82 93" fill="none" xmlns="http://www.w3.org/2000/svg">
<g clip-path="url(#clip0_921_2843)">
<path d="M67.2902 92.3279H9.65899C5.02423 92.3279 1.10722 88.9867 0.200302 84.6042C0.0111279 83.6853 0 82.8055 0 81.8811V10.0063C0 7.34444 1.09053 4.92763 2.83761 3.17907C4.36769 1.65325 6.40409 0.62305 8.67418 0.394735C9.51989 0.305636 10.399 0.344617 11.2503 0.344617C27.6249 0.344617 52.1897 0.322342 68.5755 0.344617C73.5219 0.344617 77.6781 4.19257 78.1789 9.02617C78.2735 9.97285 78.229 10.9529 78.229 11.8996V82.6663C78.229 87.472 74.6458 91.5037 70.0333 92.2165C69.1152 92.3558 68.2139 92.3335 67.2902 92.3335V92.3279Z" fill="#7F7F7F"/>
<path fill-rule="evenodd" clip-rule="evenodd" d="M68.5699 91.7596H9.65898C4.657 91.7596 0.567505 87.6667 0.567505 82.6604V10.0116C0.567505 5.00533 4.66256 0.912354 9.65898 0.912354H68.5699C73.5719 0.912354 77.6614 5.00533 77.6614 10.0116V82.666C77.6614 87.6722 73.5719 91.7652 68.5699 91.7652V91.7596Z" fill="#F5F5F5"/>
<path fill-rule="evenodd" clip-rule="evenodd" d="M77.6614 80.2102H0.567505V79.7592H77.6614V80.2102Z" fill="#54666F"/>
<path fill-rule="evenodd" clip-rule="evenodd" d="M77.6614 70.9329H0.567505V70.4818H77.6614V70.9329Z" fill="#54666F"/>
<path fill-rule="evenodd" clip-rule="evenodd" d="M77.6614 61.6554H0.567505V61.2043H77.6614V61.6554Z" fill="#54666F"/>
<path fill-rule="evenodd" clip-rule="evenodd" d="M77.6614 52.3781H0.567505V51.927H77.6614V52.3781Z" fill="#54666F"/>
<path fill-rule="evenodd" clip-rule="evenodd" d="M77.6614 43.1007H0.567505V42.6497H77.6614V43.1007Z" fill="#54666F"/>
<path fill-rule="evenodd" clip-rule="evenodd" d="M77.6614 33.8231H0.567505V33.3721H77.6614V33.8231Z" fill="#54666F"/>
<path fill-rule="evenodd" clip-rule="evenodd" d="M77.6614 24.5458H0.567505V24.0947H77.6614V24.5458Z" fill="#54666F"/>
<path fill-rule="evenodd" clip-rule="evenodd" d="M77.6614 15.2684H0.567505V14.8174H77.6614V15.2684Z" fill="#54666F"/>
<path fill-rule="evenodd" clip-rule="evenodd" d="M12.5522 91.7596V0.912354H13.3089V91.7596H12.5522Z" fill="#F27060"/>
<path fill-rule="evenodd" clip-rule="evenodd" d="M36.9111 86.7646C37.3229 86.5808 37.6956 86.3302 37.9905 85.9516C39.0811 84.5371 36.4159 82.783 35.3532 82.3264C34.6522 82.0256 33.5283 82.0702 33.2389 82.9779C32.8828 84.0861 32.4989 85.7734 32.4711 86.9651C32.4489 87.9006 33.1277 87.8727 34.5798 87.5219C35.3421 87.3382 36.1767 87.0987 36.9167 86.7646H36.9111Z" fill="#54666F"/>
<path fill-rule="evenodd" clip-rule="evenodd" d="M34.9137 84.9604C35.0639 84.7432 35.2141 84.5316 35.3699 84.3144C35.726 83.8188 36.1822 83.1283 35.4979 82.6605C34.9248 82.2763 34.1848 82.6884 33.8899 83.2452C33.4225 84.1362 33.1221 85.0439 32.8773 86.0129C32.7994 86.3303 32.5379 86.915 32.638 87.2435C32.7771 87.7057 33.2 87.4496 33.3725 87.199C33.5894 86.8816 33.8009 86.5697 34.0179 86.2523C34.3128 85.818 34.6076 85.3836 34.9137 84.9548V84.9604Z" fill="#97A79F"/>
<path fill-rule="evenodd" clip-rule="evenodd" d="M35.9486 73.3219L33.2445 82.9835C33.2445 82.9835 36.7331 83.88 37.117 86.6031C37.1671 86.9484 47.299 82.499 47.299 82.499L46.2808 74.7252L37.6178 72.7316L35.9486 73.3163V73.3219Z" fill="url(#paint0_linear_921_2843)"/>
<path fill-rule="evenodd" clip-rule="evenodd" d="M45.5352 77.6543C45.2125 78.0329 44.7674 78.2056 44.3835 78.523C43.8883 77.7823 42.82 77.3536 41.9186 77.6765C41.8408 76.9248 41.774 76.3011 41.3289 75.6551C40.9672 75.1317 40.166 74.1516 39.4371 74.1906C39.6041 74.0012 39.7543 73.8007 39.9156 73.6058C41.2844 71.9185 42.7032 70.2813 44.1665 68.672C46.2585 66.3666 48.345 64.0611 50.4148 61.739C52.7461 59.1217 55.0774 56.5045 57.4253 53.8983C59.3616 51.7488 61.2978 49.5937 63.223 47.4331C63.9908 46.5699 64.7642 45.7124 65.532 44.8492C66.272 44.0251 67.2123 43.6575 67.6352 44.0362L71.3241 47.3329C71.7469 47.7115 71.491 48.686 70.7565 49.5158L45.5352 77.6598V77.6543Z" fill="#FFCA51"/>
<path fill-rule="evenodd" clip-rule="evenodd" d="M41.2566 72.6425C40.9561 72.9822 40.6946 73.5725 40.1827 73.5168C39.7543 73.4722 39.4372 73.127 38.9587 73.1103C38.0963 73.0824 37.0558 73.3107 36.4104 73.9233C36.5161 73.1103 36.377 72.6648 36.9445 72.0244L65.5932 39.8319C66.3332 39.0077 67.2736 38.6402 67.6964 39.0189C67.7298 39.0467 67.7632 42.7109 67.7242 42.9949C67.6686 43.3958 67.2068 43.6798 66.4723 44.4984L41.251 72.6425H41.2566Z" fill="#FFE076"/>
<path fill-rule="evenodd" clip-rule="evenodd" d="M45.8246 76.6073C45.4407 77.0417 44.9622 77.398 44.6061 77.8491C45.8635 78.5508 46.5868 80.6223 45.7578 81.8697C45.9192 81.6302 46.6647 82.098 46.8539 82.1091C47.2712 82.1426 47.4993 81.8474 47.7553 81.5578L76.4819 49.4322C77.2219 48.6025 77.3888 47.5555 76.8602 47.0822C76.8213 47.0432 72.7206 47.0154 72.4091 47.0599C71.9751 47.1212 71.7748 47.6391 71.0403 48.4577L45.819 76.6017L45.8246 76.6073Z" fill="#F7F297"/>
<path fill-rule="evenodd" clip-rule="evenodd" d="M45.5464 77.2977C45.1625 77.7321 44.684 78.0885 44.3279 78.5395C45.5853 79.2412 46.3031 81.3127 45.4796 82.5601C45.641 82.3207 46.3921 82.7884 46.5813 82.7996C46.9986 82.833 47.2267 82.5378 47.4826 82.2483L76.2092 50.1226C76.9492 49.2985 77.1162 48.2404 76.5876 47.7726C76.5486 47.7337 72.448 47.7058 72.142 47.7504C71.708 47.8116 71.5077 48.3295 70.7733 49.1481L45.5519 77.2922L45.5464 77.2977Z" fill="#EB9A42"/>
<path fill-rule="evenodd" clip-rule="evenodd" d="M77.5724 48.9812C74.9796 43.6631 72.1365 40.9233 66.7339 38.5288C65.2706 40.0491 64.5417 40.8064 63.0784 42.3266C68.481 44.7212 71.3241 47.4665 73.9169 52.779C75.3802 51.2588 76.1091 50.5015 77.5724 48.9812Z" fill="url(#paint1_linear_921_2843)"/>
<path fill-rule="evenodd" clip-rule="evenodd" d="M77.7003 48.8698C75.0686 43.5127 72.1976 40.7451 66.7561 38.3171C65.2928 39.8374 64.5639 40.5947 63.1006 42.115C68.5421 44.5485 71.4131 47.3161 74.0448 52.6676C75.5082 51.1474 76.237 50.39 77.7003 48.8698Z" fill="#97A79F"/>
<path fill-rule="evenodd" clip-rule="evenodd" d="M81.0888 45.2669C81.8288 41.2463 73.4606 33.9235 70.1445 34.7142C68.6812 36.2345 67.9523 36.9918 66.489 38.5121C71.9305 40.9456 74.8015 43.7132 77.4333 49.0647C78.8966 47.5444 79.6255 46.7871 81.0888 45.2669Z" fill="#F27060"/>
</g>
<defs>
<linearGradient id="paint0_linear_921_2843" x1="35.9179" y1="77.1622" x2="47.8727" y2="84.3411" gradientUnits="userSpaceOnUse">
<stop stop-color="#FFC797"/>
<stop offset="0.31" stop-color="#E5AB77"/>
<stop offset="0.74" stop-color="#C68950"/>
<stop offset="0.97" stop-color="#BB7C42"/>
</linearGradient>
<linearGradient id="paint1_linear_921_2843" x1="80.056" y1="34.5711" x2="65.9904" y2="48.7926" gradientUnits="userSpaceOnUse">
<stop stop-color="white"/>
<stop offset="0.02" stop-color="#FCFCFC"/>
<stop offset="0.48" stop-color="#BFC0BD"/>
<stop offset="0.81" stop-color="#999B96"/>
<stop offset="0.98" stop-color="#8B8D88"/>
</linearGradient>
<clipPath id="clip0_921_2843">
<rect width="81.1389" height="92" fill="white" transform="translate(0 0.333252)"/>
</clipPath>
</defs>
</svg>
