<svg width="108" height="92" viewBox="0 0 108 92" fill="none" xmlns="http://www.w3.org/2000/svg">
<g clip-path="url(#clip0_921_2871)">
<path d="M95.3247 0C101.513 0 106.693 4.9054 107.166 11.0022C107.205 11.5392 107.2 12.0593 107.2 12.5963V80.0749C107.2 86.3842 102.149 91.6476 95.9324 91.972C95.3749 92 94.823 91.9888 94.2654 91.9888H11.8807C5.69219 91.9888 0.512829 87.0834 0.0389371 80.981C-0.016815 80.293 -8.93672e-05 79.6051 -8.93672e-05 78.9171V11.9195C-8.93672e-05 5.81153 4.73326 0.682393 10.6764 0.0671206C11.2897 0.00559338 11.8918 0 12.5051 0H95.3303H95.3247Z" fill="#FABB8E"/>
<path fill-rule="evenodd" clip-rule="evenodd" d="M11.8807 0.559326H95.3192C101.547 0.559326 106.642 5.67168 106.642 11.9195V80.0749C106.642 86.3227 101.547 91.4351 95.3192 91.4351H11.8807C5.65323 91.4351 0.557495 86.3227 0.557495 80.0749V11.9195C0.557495 5.67168 5.65323 0.559326 11.8807 0.559326Z" fill="#FFE076"/>
<path fill-rule="evenodd" clip-rule="evenodd" d="M15.4935 8.9718H90.0842C94.929 8.9718 98.2518 12.3055 98.2518 16.3774V75.6226C98.2518 79.6946 94.929 83.0282 90.8703 83.0282H16.2796C12.2209 83.0282 8.89807 79.6946 8.89807 75.6226V16.3774C8.89807 12.3055 12.2209 8.9718 16.2796 8.9718H15.4935Z" fill="#97A79F"/>
<path fill-rule="evenodd" clip-rule="evenodd" d="M17.8407 10.9519H89.3036C93.145 10.9519 96.2894 14.1066 96.2894 17.9604V74.0285C96.2894 77.8824 93.145 81.037 89.3036 81.037H17.8407C13.9994 81.037 10.855 77.8824 10.855 74.0285V17.966C10.855 14.1122 13.9994 10.9575 17.8407 10.9575V10.9519Z" fill="#54666F"/>
<path opacity="0.15" fill-rule="evenodd" clip-rule="evenodd" d="M66.423 10.9519H89.3092C93.1506 10.9519 96.295 14.1066 96.295 17.9604V74.0285C96.295 77.8824 93.1506 81.037 89.3092 81.037H36.7295L66.423 10.9519Z" fill="#F5F5F5"/>
<path fill-rule="evenodd" clip-rule="evenodd" d="M17.8407 10.9519H89.3036C93.145 10.9519 96.2894 14.1066 96.2894 17.9604V20.69C96.2894 16.8361 93.145 13.6815 89.3036 13.6815H17.8407C13.9994 13.6815 10.855 16.8361 10.855 20.69V17.9604C10.855 14.1066 13.9994 10.9519 17.8407 10.9519Z" fill="#54666F"/>
<path d="M28.4001 33.124L28.4447 33.2639L30.2566 33.303L30.3012 33.3478L29.0022 59.1612C28.651 59.3123 28.2496 59.3906 27.7868 59.3906H27.5025C27.3966 59.3906 27.2795 59.329 27.1513 59.206L28.2273 35.2104H28.1827L25.9359 36.3906C25.5122 35.7361 25.3003 35.2215 25.3003 34.8412C25.3003 34.5559 25.9191 34.1812 27.1513 33.7057L28.4113 33.124H28.4001Z" fill="white"/>
<path d="M37.4264 39.3271C38.5582 39.383 39.1213 39.4781 39.1213 39.6124L39.177 44.6632L44.5515 44.3779C44.8136 44.859 44.9474 45.2952 44.9474 45.6812V45.7371C44.9474 46.2182 44.6296 46.5034 43.9884 46.5873L39.177 47.0963V47.1523L39.2328 52.2031C39.0711 52.3541 38.9206 52.4268 38.7812 52.4268H38.3853C37.839 52.4268 37.1978 52.3149 36.4619 52.0856V47.2585L36.4061 47.3145H36.3504L31.539 47.5997L31.4832 47.5438L31.4275 45.7259V45.2169C31.4275 45.1051 33.1056 44.9708 36.4619 44.8198V39.8249C36.4619 39.4837 36.7797 39.3159 37.4208 39.3159L37.4264 39.3271Z" fill="white"/>
<path d="M49.1956 33.124L49.2402 33.2639L51.0522 33.303L51.0968 33.3478L49.7978 59.1612C49.4465 59.3123 49.0451 59.3906 48.5824 59.3906H48.298C48.1921 59.3906 48.075 59.329 47.9468 59.206L49.0228 35.2104H48.9782L46.7314 36.3906C46.3077 35.7361 46.0958 35.2215 46.0958 34.8412C46.0958 34.5559 46.7147 34.1812 47.9468 33.7057L49.2068 33.124H49.1956Z" fill="white"/>
<path d="M63.6799 41.5868H64.5162C64.9121 41.5868 65.1128 41.7042 65.1128 41.9392V43.2704C65.1128 43.6675 65.0013 43.8633 64.7727 43.8633L52.3233 45.0547C52.2564 44.9148 52.2229 44.7023 52.2229 44.417V43.069C52.2229 42.6439 52.3734 42.4314 52.6745 42.4314C58.1995 41.8664 61.868 41.5812 63.6799 41.5812V41.5868ZM64.611 46.8613C64.9121 47.6388 65.0626 48.2485 65.0626 48.6904C64.9678 48.9253 64.5218 49.0428 63.719 49.0428C62.2638 49.3056 58.5954 49.8706 52.7135 50.732C52.418 49.8706 52.2731 49.2441 52.2731 48.8414V48.4443C52.2731 48.2765 52.8808 48.1534 54.0962 48.0919L64.6054 46.8557L64.611 46.8613Z" fill="white"/>
<path d="M71.8143 33.0289H72.3104C74.5461 33.0289 76.2967 34.0246 77.5567 36.0102C77.9526 36.8884 78.1533 37.7386 78.1533 38.5664V38.7957C78.1533 41.1226 76.7873 43.8857 74.0499 47.0851C72.238 49.6413 70.9278 51.8563 70.1194 53.7301C69.4671 55.4416 69.1214 56.633 69.0713 57.3042H69.1159L79.5248 56.8344C79.8816 57.2595 80.06 57.5671 80.06 57.7573V57.9866C80.06 58.4788 79.1791 58.7865 77.4173 58.9095C75.3043 59.0885 71.9592 59.2563 67.3875 59.4073C66.6795 58.518 66.3004 57.8468 66.2446 57.3937C66.8468 55.2738 67.4433 53.6406 68.0287 52.4995C68.6029 51.0452 69.7124 48.9645 71.3515 46.2685C73.3865 43.4047 74.4067 41.8944 74.4067 41.7434C74.8973 40.8429 75.1427 40.0039 75.1427 39.2152C75.1427 37.7777 74.1726 36.7541 72.2268 36.15L71.2623 36.0214H70.8107C69.5452 36.0214 68.5082 36.6143 67.6998 37.7945H67.5715C66.7408 37.2575 66.3283 36.8436 66.3283 36.5584C66.7129 35.4061 67.5548 34.4776 68.8482 33.7784C69.7793 33.2862 70.7717 33.0401 71.8198 33.0401L71.8143 33.0289Z" fill="white"/>
</g>
<defs>
<clipPath id="clip0_921_2871">
<rect width="107.2" height="92" fill="white"/>
</clipPath>
</defs>
</svg>
