<svg width="91" height="93" viewBox="0 0 91 93" fill="none" xmlns="http://www.w3.org/2000/svg">
<g clip-path="url(#clip0_921_2889)">
<path d="M9.47325 0.666626H81.0186C86.2511 0.666626 90.4918 4.91021 90.4918 10.1339V65.5344C90.4918 70.7637 86.2456 75.0017 81.0186 75.0017H9.47325C4.24067 75.0017 0 70.7582 0 65.5344V10.1339C0 4.91021 4.24624 0.666626 9.47325 0.666626Z" fill="#54666F"/>
<path d="M84.1001 7.2937H6.39722V58.1109H84.1001V7.2937Z" fill="#97A79F"/>
<path d="M55.7082 75.0073H34.7891V88.0499H55.7082V75.0073Z" fill="#54666F"/>
<path d="M64.0781 88.0499H26.4192V92.6722H64.0781V88.0499Z" fill="#54666F"/>
<path d="M62.0944 86.5073H28.3975V88.0499H62.0944V86.5073Z" fill="#FABB8E"/>
<path d="M48.659 64.3872C48.659 66.2695 47.1322 67.7954 45.2431 67.7954C43.354 67.7954 41.8271 66.2695 41.8271 64.3872C41.8271 62.5049 43.354 60.9734 45.2431 60.9734C47.1322 60.9734 48.659 62.4993 48.659 64.3872Z" fill="#F5F5F5"/>
<path d="M16.6618 15.8533H30.359C31.9304 15.8533 33.201 17.1286 33.201 18.6935V24.6746C33.201 26.245 31.9249 27.5148 30.359 27.5148H16.6618C15.0904 27.5148 13.8198 26.2395 13.8198 24.6746V18.6935C13.8198 17.123 15.0959 15.8533 16.6618 15.8533Z" fill="#F5F5F5"/>
<path d="M16.6618 31.2627H30.359C31.9304 31.2627 33.201 32.538 33.201 34.1029V47.1288C33.201 48.6993 31.9249 49.969 30.359 49.969H16.6618C15.0904 49.969 13.8198 48.6937 13.8198 47.1288V34.1029C13.8198 32.5324 15.0959 31.2627 16.6618 31.2627Z" fill="#F5F5F5"/>
<path d="M42.429 15.8533H73.5236C75.095 15.8533 76.3655 17.1286 76.3655 18.6935V23.5775C76.3655 25.1479 75.0894 26.4177 73.5236 26.4177H42.429C40.8576 26.4177 39.587 25.1424 39.587 23.5775V18.6935C39.587 17.123 40.8631 15.8533 42.429 15.8533Z" fill="#F5F5F5"/>
<path d="M76.3655 31.2627H39.587V34.7823H76.3655V31.2627Z" fill="#F5F5F5"/>
<path d="M76.3655 38.8533H39.587V42.3729H76.3655V38.8533Z" fill="#F5F5F5"/>
<g opacity="0.15">
<path d="M19.2307 74.7344H34.7835V86.2344H28.3974V87.777H26.4136V92.3993H64.0726V87.777H62.0888V86.2344H55.7027V74.7344H81.013C86.2455 74.7344 90.4862 70.4964 90.4862 65.2671V9.86101C90.4862 7.6 89.6893 5.52276 88.3631 3.89661L19.2251 74.7344H19.2307Z" fill="#F5F5F5"/>
</g>
<path d="M54.1647 24.4407L55.7305 59.8429L65.1982 53.8116L71.9632 64.415L82.9299 57.4203L76.1649 46.8225L85.627 40.7857L54.1647 24.4407Z" fill="#F27060"/>
</g>
<defs>
<clipPath id="clip0_921_2889">
<rect width="90.4918" height="92" fill="white" transform="translate(0 0.666626)"/>
</clipPath>
</defs>
</svg>
